<?xml version="1.0" encoding="utf-8"?>
<!-- Generator: Adobe Illustrator 28.2.0, SVG Export Plug-In . SVG Version: 6.00 Build 0)  -->
<svg version="1.1" xmlns="http://www.w3.org/2000/svg" xmlns:xlink="http://www.w3.org/1999/xlink" x="0px" y="0px"
	 viewBox="0 0 1920 1080" style="enable-background:new 0 0 1920 1080;" xml:space="preserve">
<style type="text/css">
	.st0{filter:url(#Adobe_OpacityMaskFilter);}
	.st1{mask:url(#SVGID_1_);fill:#F49623;}
	.st2{filter:url(#Adobe_OpacityMaskFilter_00000131341344006962792570000011609189050845826991_);}
	.st3{mask:url(#SVGID_00000106866160316786708810000015581634370179141049_);fill:#D1D3D4;}
	.st4{filter:url(#Adobe_OpacityMaskFilter_00000034777744602165422880000001692411750120836768_);}
	.st5{mask:url(#SVGID_00000040534388762261379030000014791361286394349216_);fill:#D1D3D4;}
	.st6{filter:url(#Adobe_OpacityMaskFilter_00000067218088300151541650000012562082120728832689_);}
	.st7{mask:url(#SVGID_00000062157448422107604460000011848823991494004101_);}
	.st8{fill:#D1D3D4;}
	.st9{display:none;}
	.st10{display:inline;fill:#FFFFFF;}
	.st11{fill:#EFEFEF;}
	.st12{fill:#FFC600;}
	.st13{fill:#FFFFFF;stroke:#FFC600;stroke-width:1.9696;stroke-miterlimit:10;}
	.st14{fill:#FFFFFF;}
	.st15{font-family:'ArialRoundedMTBold';}
	.st16{font-size:8.6368px;}
	.st17{fill:none;stroke:#FFC600;stroke-width:2.1169;stroke-miterlimit:10;}
	.st18{fill:none;stroke:#FFC600;stroke-width:1.8157;stroke-miterlimit:10;}
	.st19{fill:none;stroke:#FFFFFF;stroke-width:1.6365;stroke-miterlimit:10;}
	.st20{fill:none;}
	.st21{display:inline;}
	.st22{fill:#8D2F89;}
</style>
<g id="orange">
	<defs>
		<filter id="Adobe_OpacityMaskFilter" filterUnits="userSpaceOnUse" x="954.2" y="541.4" width="379.5" height="379.5">
			<feFlood  style="flood-color:white;flood-opacity:1" result="back"/>
			<feBlend  in="SourceGraphic" in2="back" mode="normal"/>
		</filter>
	</defs>
	<mask maskUnits="userSpaceOnUse" x="954.2" y="541.4" width="379.5" height="379.5" id="SVGID_1_">
		<g class="st0">
			
				<ellipse transform="matrix(4.269294e-02 -0.9991 0.9991 4.269294e-02 375.7021 1449.772)" cx="944.4" cy="528.8" rx="253.7" ry="253.7"/>
		</g>
	</mask>
	<path class="st1" d="M954.2,920.9c206.9-6,373.5-172.6,379.5-379.5H954.2V920.9z"/>
</g>
<g id="blue">
	<defs>
		
			<filter id="Adobe_OpacityMaskFilter_00000047027120520048531860000014874953742161002119_" filterUnits="userSpaceOnUse" x="551.6" y="541.4" width="379.5" height="379.5">
			<feFlood  style="flood-color:white;flood-opacity:1" result="back"/>
			<feBlend  in="SourceGraphic" in2="back" mode="normal"/>
		</filter>
	</defs>
	
		<mask maskUnits="userSpaceOnUse" x="551.6" y="541.4" width="379.5" height="379.5" id="SVGID_00000041260578249584645640000004755416942328447887_">
		<g style="filter:url(#Adobe_OpacityMaskFilter_00000047027120520048531860000014874953742161002119_);">
			
				<ellipse transform="matrix(4.269294e-02 -0.9991 0.9991 4.269294e-02 375.7021 1449.772)" cx="944.4" cy="528.8" rx="253.7" ry="253.7"/>
		</g>
	</mask>
	<path style="mask:url(#SVGID_00000041260578249584645640000004755416942328447887_);fill:#D1D3D4;" d="M931.1,920.9V541.4H551.6
		C557.6,748.3,724.2,914.9,931.1,920.9z"/>
</g>
<g id="green">
	<defs>
		
			<filter id="Adobe_OpacityMaskFilter_00000107557355207882420710000017541782833295492509_" filterUnits="userSpaceOnUse" x="954.2" y="138.7" width="379.5" height="379.5">
			<feFlood  style="flood-color:white;flood-opacity:1" result="back"/>
			<feBlend  in="SourceGraphic" in2="back" mode="normal"/>
		</filter>
	</defs>
	
		<mask maskUnits="userSpaceOnUse" x="954.2" y="138.7" width="379.5" height="379.5" id="SVGID_00000135681471674982236550000010501714835604796341_">
		<g style="filter:url(#Adobe_OpacityMaskFilter_00000107557355207882420710000017541782833295492509_);">
			
				<ellipse transform="matrix(4.269294e-02 -0.9991 0.9991 4.269294e-02 375.7021 1449.772)" cx="944.4" cy="528.8" rx="253.7" ry="253.7"/>
		</g>
	</mask>
	<path style="mask:url(#SVGID_00000135681471674982236550000010501714835604796341_);fill:#D1D3D4;" d="M954.2,138.7v379.5h379.5
		C1327.7,311.3,1161.1,144.7,954.2,138.7z"/>
</g>
<g id="purple">
	<g>
		<g>
			<defs>
				
					<filter id="Adobe_OpacityMaskFilter_00000106110490488971594360000017728403318580486289_" filterUnits="userSpaceOnUse" x="551.5" y="138.5" width="379.5" height="379.5">
					<feFlood  style="flood-color:white;flood-opacity:1" result="back"/>
					<feBlend  in="SourceGraphic" in2="back" mode="normal"/>
				</filter>
			</defs>
			
				<mask maskUnits="userSpaceOnUse" x="551.5" y="138.5" width="379.5" height="379.5" id="SVGID_00000039847793025604267810000003908515160743885246_">
				<g style="filter:url(#Adobe_OpacityMaskFilter_00000106110490488971594360000017728403318580486289_);">
					
						<ellipse transform="matrix(4.269294e-02 -0.9991 0.9991 4.269294e-02 375.7021 1449.772)" cx="944.4" cy="528.8" rx="253.7" ry="253.7"/>
				</g>
			</mask>
			<g style="mask:url(#SVGID_00000039847793025604267810000003908515160743885246_);">
				<path class="st8" d="M931,138.5V518H551.5C557.5,311.1,724.1,144.5,931,138.5z"/>
			</g>
		</g>
	</g>
</g>
<g id="white_circle" class="st9">
	
		<ellipse transform="matrix(4.269294e-02 -0.9991 0.9991 4.269294e-02 375.7021 1449.772)" class="st10" cx="944.4" cy="528.8" rx="253.7" ry="253.7"/>
</g>
<g id="black_circle_x5F_mask_orange" class="st9">
</g>
<g id="black_circle_x5F_mask_green" class="st9">
</g>
<g id="black_circle_x5F_mask_blue" class="st9">
</g>
<g id="black_circle_x5F_mask_purple" class="st9">
</g>
<g id="icons">
	<circle class="st11" cx="1322.1" cy="736.7" r="22.7"/>
	<path class="st12" d="M1316.2,723.3v12.1h9.8v-12.1H1316.2z M1324.3,730.7h-6.4c-0.1,0-0.2-0.1-0.2-0.2s0.1-0.2,0.2-0.2h6.4
		c0.1,0,0.2,0.1,0.2,0.2S1324.4,730.7,1324.3,730.7z M1324.3,729.1h-6.4c-0.1,0-0.2-0.1-0.2-0.2c0-0.1,0.1-0.2,0.2-0.2h6.4
		c0.1,0,0.2,0.1,0.2,0.2C1324.5,729,1324.4,729.1,1324.3,729.1z M1324.3,727.5h-6.4c-0.1,0-0.2-0.1-0.2-0.2s0.1-0.2,0.2-0.2h6.4
		c0.1,0,0.2,0.1,0.2,0.2S1324.4,727.5,1324.3,727.5z M1324.3,725.9h-6.4c-0.1,0-0.2-0.1-0.2-0.2c0-0.1,0.1-0.2,0.2-0.2h6.4
		c0.1,0,0.2,0.1,0.2,0.2C1324.5,725.8,1324.4,725.9,1324.3,725.9z"/>
	<g>
		<polygon class="st12" points="1331,734.6 1328.5,736.2 1332.5,742.5 1335,740.9 1331,734.6 		"/>
		<path class="st12" d="M1318,746l0.2-0.4c0.1-0.2,0.1-0.4,0.1-0.5c0-0.2-0.1-0.4-0.3-0.5c-0.1-0.1-0.3-0.1-0.4-0.1
			c-0.2,0-0.5,0.1-0.6,0.3l-0.7,1c0,0,0,0,0,0c-0.3,0.4-0.6,0.9-0.8,1.2c0,0,0,0,0,0l-0.2,0.3c-0.2,0.3-0.1,0.8,0.2,1
			c0.2,0.1,0.3,0.2,0.5,0.1c0.2,0,0.4-0.1,0.5-0.3l0.1-0.2c0,0,0-0.1,0.1-0.1L1318,746C1318,746,1318,746,1318,746L1318,746z"/>
		<path class="st12" d="M1327.6,737.7c-0.2,0.1-0.4,0.1-0.6,0.1l-1.9-0.4c-1-0.2-2-0.2-3.1,0l-1.8,0.3c-0.5,0.1-0.9,0.3-1.2,0.7
			l-1.5,2c-0.1,0.1-0.1,0.2-0.1,0.4c0,0.1,0.1,0.2,0.2,0.3c0.1,0.1,0.3,0.1,0.5,0l3.3-1.7c0.3-0.2,0.8-0.2,1.1,0.1l7.1,4.6
			c0.1,0.1,0.1,0.1,0.2,0.2l1.9-1.8l-3.2-5L1327.6,737.7L1327.6,737.7z"/>
		<path class="st12" d="M1320.6,748c-0.1-0.1-0.2-0.1-0.4-0.1c0,0-0.1,0-0.1,0c-0.1,0-0.3,0.1-0.4,0.2l-0.7,1.1
			c-0.1,0.1-0.1,0.3,0,0.4c0,0.2,0.2,0.3,0.3,0.4c0.3,0.1,0.5,0,0.7-0.2l0.7-0.9C1320.8,748.5,1320.8,748.2,1320.6,748L1320.6,748z"
			/>
		<path class="st12" d="M1319.3,747.7l0.4-0.6c0.2-0.3,0.1-0.7-0.1-1c-0.1-0.1-0.3-0.2-0.4-0.2c0,0-0.1,0-0.1,0
			c-0.2,0-0.4,0.1-0.5,0.3l-1.4,2.1c-0.1,0.1-0.1,0.3,0,0.5c0,0.2,0.2,0.4,0.4,0.5c0.3,0.2,0.7,0.1,0.9-0.2l0.2-0.3
			c0,0,0-0.1,0.1-0.1L1319.3,747.7C1319.2,747.8,1319.2,747.7,1319.3,747.7L1319.3,747.7z"/>
		<path class="st12" d="M1329.2,744.5l-7.1-4.6c-0.1-0.1-0.3-0.1-0.5,0l-3.3,1.7c-0.4,0.2-0.8,0.2-1.1-0.1c-0.2-0.2-0.4-0.4-0.4-0.7
			c0-0.3,0-0.6,0.2-0.8l1.3-1.7l-1.4-0.2c-0.1,0-0.2-0.1-0.3-0.1l-1-0.5l-3,4.8l1.6,2.1c0.4-0.5,1.1-0.6,1.7-0.3
			c0.2,0.1,0.4,0.4,0.5,0.6l0.1-0.2c0.4-0.6,1.2-0.7,1.8-0.4c0.3,0.2,0.5,0.5,0.6,0.8c0,0.2,0,0.3,0,0.5c0.3,0,0.7,0.1,0.9,0.3
			c0.5,0.4,0.6,1,0.4,1.5c0.2,0,0.5,0.1,0.7,0.3c0.5,0.4,0.6,1.1,0.2,1.6l-0.3,0.4l2,0.3c0.6,0.1,1.2-0.1,1.6-0.4l-2.1-1.1
			c-0.1-0.1-0.2-0.3-0.1-0.4c0.1-0.1,0.3-0.2,0.4-0.1l2.3,1.2c0.4,0.2,0.9,0.1,1.1-0.3c0.1-0.1,0.1-0.3,0.1-0.5
			c0-0.2-0.1-0.3-0.3-0.4l-0.5-0.3l-2.2-1.2c-0.1-0.1-0.2-0.3-0.1-0.4c0.1-0.1,0.3-0.2,0.4-0.1l3,1.6c0.4,0.2,1,0.1,1.3-0.3
			c0.1-0.1,0.1-0.3,0.1-0.5c0-0.2-0.1-0.3-0.3-0.4l-0.2-0.1l-3.2-1.9c-0.1-0.1-0.2-0.3-0.1-0.4c0.1-0.1,0.3-0.2,0.4-0.1l3.1,1.8l0,0
			l0.2,0.1l0.6,0.4c0.4,0.2,0.9,0.1,1.1-0.3c0.1-0.2,0.2-0.4,0.1-0.6C1329.5,744.8,1329.4,744.6,1329.2,744.5L1329.2,744.5z"/>
		<path class="st12" d="M1316,745c0-0.2-0.2-0.3-0.3-0.4c-0.1-0.1-0.2-0.1-0.4-0.1c-0.2,0-0.4,0.1-0.6,0.3l-0.9,1.2
			c-0.2,0.3-0.1,0.7,0.2,1l0,0c0.1,0.1,0.3,0.1,0.5,0.1c0.2,0,0.3-0.1,0.4-0.2l0.9-1.3C1316,745.4,1316,745.2,1316,745L1316,745z"/>
		<polygon class="st12" points="1313.1,734.8 1309.1,741.1 1311.6,742.7 1315.6,736.4 1313.1,734.8 		"/>
	</g>
	<circle class="st11" cx="1286.3" cy="799" r="22.5"/>
	<g>
		<g>
			<path class="st13" d="M1283.1,795.7c0-0.4,0-0.8,0.1-1.2c0.1-0.4,0.3-0.7,0.5-1c0.4-0.6,1.1-1.1,1.9-1.3c0.3-0.1,0.5-0.1,0.8-0.1
				c1.6,0,3,1.2,3.2,2.7c0.1,0.7,0,1.5,0,2.2c0,0.5,0,1.1,0,1.6c0,0,0,0,0,0l-6.6,0C1283.1,797.7,1283.1,796.7,1283.1,795.7z"/>
			
				<rect x="1278.2" y="795.4" transform="matrix(1 5.068669e-03 -5.068669e-03 1 4.0747 -6.5099)" class="st12" width="16.4" height="10.5"/>
		</g>
		<polygon class="st14" points="1294.6,795.4 1290.1,798.1 1282.7,798.1 1278.2,795.3 		"/>
		<path class="st14" d="M1288.9,800.5l-5.1,0c-0.1,0-0.2,0.1-0.2,0.2l0,0c0,0.1,0.1,0.2,0.2,0.2l5.1,0c0.1,0,0.2-0.1,0.2-0.2l0,0
			C1289.1,800.6,1289,800.5,1288.9,800.5z"/>
	</g>
	<circle class="st11" cx="1237.4" cy="849.5" r="22.5"/>
	<g>
		<path class="st12" d="M1225.3,847.5l0-7.1c0-2.8,2.3-5.1,5-5.1l14-0.1c2.8,0,5.1,2.3,5.1,5l0,7.1c0,2.8-2.3,5.1-5,5.1l-14,0.1
			C1227.6,852.6,1225.3,850.3,1225.3,847.5z"/>
		<path class="st14" d="M1227.2,848.1l0-8.3c0-1.4,1.1-2.5,2.5-2.5l15.4-0.1c1.4,0,2.5,1.1,2.5,2.5l0,8.3c0,1.4-1.1,2.5-2.5,2.5
			l-15.4,0.1C1228.3,850.6,1227.2,849.5,1227.2,848.1z"/>
		
			<rect x="1227.8" y="843.7" transform="matrix(4.147475e-03 1 -1 4.147475e-03 2083.604 -389.6244)" class="st14" width="19.2" height="15.2"/>
		<g>
			
				<rect x="1234.9" y="849.5" transform="matrix(1 -4.147475e-03 4.147475e-03 1 -3.5267 5.1395)" class="st12" width="5" height="6.7"/>
			<polygon class="st12" points="1237.5,865.1 1234.9,860.7 1232.3,856.3 1237.4,856.2 1242.6,856.2 1240,860.7 			"/>
		</g>
		<g>
			<circle class="st12" cx="1237.4" cy="843.6" r="5.2"/>
			<text transform="matrix(1 -4.150000e-03 4.150000e-03 1 1234.8325 846.6241)" class="st14 st15 st16">$</text>
		</g>
	</g>
	<circle class="st11" cx="1178.1" cy="889.8" r="22.5"/>
	<g>
		<path class="st12" d="M1178.2,896.8c0.9,0,1.9,0,1.9,0c1.3,0,2.5-0.9,3-2.2c0.3-0.8,0.2-1.6,0.3-2.4c0.2-0.9,0.6-1.4,1.2-2.1
			c1.2-1.4,1.8-3.3,1.8-5.1c0-4.5-3.8-8.1-8.4-7.9"/>
		<path class="st12" d="M1178.2,896.8c-0.9,0-1.9,0-1.9,0c-1.3,0-2.6-0.8-3-2.1c-0.3-0.8-0.2-1.6-0.4-2.4c-0.2-0.9-0.7-1.4-1.2-2
			c-1.2-1.4-1.9-3.2-1.9-5.1c0-4.5,3.7-8.2,8.2-8"/>
		<path class="st12" d="M1181.7,898.5l-6.9,0.1c-0.3,0-0.5-0.2-0.5-0.5l0,0c0-0.3,0.2-0.5,0.5-0.5l6.9-0.1c0.3,0,0.5,0.2,0.5,0.5
			l0,0C1182.2,898.3,1182,898.5,1181.7,898.5z"/>
		<path class="st12" d="M1181,900.5l-5.4,0.1c-0.3,0-0.5-0.2-0.5-0.5l0,0c0-0.3,0.2-0.5,0.5-0.5l5.4-0.1c0.3,0,0.5,0.2,0.5,0.5l0,0
			C1181.5,900.2,1181.2,900.5,1181,900.5z"/>
		<path class="st12" d="M1180.2,902.4l-3.9,0c-0.3,0-0.5-0.2-0.5-0.5l0,0c0-0.3,0.2-0.5,0.5-0.5l3.9,0c0.3,0,0.5,0.2,0.5,0.5l0,0
			C1180.7,902.2,1180.5,902.4,1180.2,902.4z"/>
		
			<rect x="1163.4" y="883.2" transform="matrix(0.9999 -1.074188e-02 1.074188e-02 0.9999 -9.448 12.6166)" class="st14" width="12.7" height="5.2"/>
		<polygon class="st14" points="1185.3,885.7 1180.8,888.4 1176.2,891.1 1176.1,885.8 1176.1,880.4 1180.7,883.1 		"/>
	</g>
	<circle class="st11" cx="1117.1" cy="916.1" r="22.5"/>
	<g>
		<polyline class="st17" points="1109,901.9 1109,927.1 1132.3,927.1 		"/>
		<path class="st18" d="M1109,923.7l2.4-1.2l2.5,0.6l2.3-4.5l4.4,2.2l2.3-3.6l4.6,2c0,0,2.5-7.2,2.6-7.3c0.1-0.3,0.2-0.6,0.3-0.9"/>
		<path class="st18" d="M1109,916.9l2.4-1.2l2.5,0.6l2.3-4.5l4.4,2.2l2.3-3.6l4.3,0.2c0.1-0.1,0.2-0.3,0.2-0.4
			c0.2-0.4,0.4-0.7,0.6-1.1c0.2-0.5,0.5-0.9,0.7-1.4c0.2-0.4,0.5-0.9,0.7-1.3c0.3-0.6,0.6-1.2,0.9-1.8"/>
	</g>
</g>
<g id="lines">
	<path class="st19" d="M930.1,159.4c-198.8,5.7-359,162.1-364.8,356.3"/>
	<path class="st19" d="M934.6,175.7c-190.1,5.5-343.2,156.8-348.8,344.8"/>
	<path class="st19" d="M934.6,193.2c-177.2,5.2-319.9,148.8-325.1,327.2"/>
	<path class="st19" d="M933.3,212.3c-165.7,4.9-299.1,140.2-303.9,308.2"/>
	<path class="st19" d="M931.4,230.4c-153.2,4.6-276.6,131.3-281,288.8"/>
	<path class="st19" d="M937.9,252.8C792.6,257,675.7,374.5,671.4,520.5"/>
	<path class="st19" d="M953.6,159.6c198.8,5.7,359,165.5,364.8,359.8"/>
	<path class="st19" d="M949.1,175.9c190.1,5.5,343.2,156.8,348.8,344.8"/>
	<path class="st19" d="M949.1,193.4c177.2,5.2,319.9,148.8,325.1,327.2"/>
	<path class="st19" d="M950.4,212.5c165.7,4.9,299.1,140.2,303.9,308.2"/>
	<path class="st19" d="M952.3,230.6c153.2,4.6,276.6,131.3,281,288.8"/>
	<path class="st19" d="M945.8,253c145.3,4.2,262.2,121.8,266.5,267.7"/>
	<path class="st19" d="M930.1,902.5c-198.8-5.7-359-165.5-364.8-359.8"/>
	<path class="st19" d="M934.6,886.1c-190.1-5.5-343.2-156.8-348.8-344.8"/>
	<path class="st19" d="M934.6,868.6c-177.2-5.2-319.9-148.8-325.1-327.2"/>
	<path class="st19" d="M933.3,849.6c-165.7-4.9-299.1-140.2-303.9-308.2"/>
	<path class="st19" d="M931.4,831.5c-153.2-4.6-276.6-131.3-281-288.8"/>
	<path class="st19" d="M937.9,809.1c-145.3-4.2-262.2-121.8-266.5-267.7"/>
	<path class="st19" d="M950.4,899.6c198.8-5.7,362.1-165.5,367.9-359.8"/>
	<path class="st19" d="M949.1,883.3c190.1-5.5,343.2-156.8,348.8-344.8"/>
	<path class="st19" d="M949.1,865.8c177.2-5.2,319.9-148.8,325.1-327.2"/>
	<path class="st19" d="M950.4,846.7c165.7-4.9,299.1-140.2,303.9-308.2"/>
	<path class="st19" d="M950.4,828.6c153.2-4.6,278.5-131.3,282.9-288.8"/>
	<path class="st19" d="M945.8,806.2C1091,802,1208,684.5,1212.2,538.5"/>
</g>
<g id="text">
	<g>
		<path id="SVGID_x5F_00000075868071287735426710000017856435644008586654_x5F_" class="st20" d="M721.4,521.9
			c3.5-119.4,99.2-215.7,217.9-219.2"/>
		<text>		<textPath  xlink:href="#SVGID_x5F_00000075868071287735426710000017856435644008586654_x5F_" startOffset="0%">
<tspan  class="st8" style="font-family:'Montserrat-Bold'; font-size:21.9px;">SECURED LIVELIHOODS</tspan>		</textPath>
</text>
	</g>
	<g>
		<path id="SVGID_x5F_00000133487346714828310080000011765851992257798580_x5F_" class="st20" d="M944.3,303
			c118.8,3.5,214.5,99.7,217.9,219.2"/>
		<text>		<textPath  xlink:href="#SVGID_x5F_00000133487346714828310080000011765851992257798580_x5F_" startOffset="0%">
<tspan  class="st8" style="font-family:'Montserrat-Bold'; font-size:21.9px;">NATURE &amp; GREEN FUTURES</tspan>		</textPath>
</text>
	</g>
	<g>
		<path id="SVGID_x5F_00000000219715593971610110000001462049985744340099_x5F_" class="st20" d="M705.4,540.4
			c3.7,127.9,106.3,231,233.5,234.7"/>
		<text>		<textPath  xlink:href="#SVGID_x5F_00000000219715593971610110000001462049985744340099_x5F_" startOffset="0%">
<tspan  class="st8" style="font-family:'Montserrat-Bold'; font-size:22px;">JUST SOCIETIES</tspan>		</textPath>
</text>
	</g>
	<g>
		<path id="SVGID_x5F_00000052803976162377506270000012525956366835370649_x5F_" class="st20" d="M944.8,772.2
			c127.2-3.7,229.8-106.8,233.5-234.7"/>
		<text>		<textPath  xlink:href="#SVGID_x5F_00000052803976162377506270000012525956366835370649_x5F_" startOffset="0%">
<tspan  style="fill:#F49623; font-family:'Montserrat-Bold'; font-size:22px;">SUSTAINABLE OPEN ECONOMIES</tspan>		</textPath>
</text>
	</g>
</g>
<g id="old_text" class="st9">
	<g class="st21">
		<g>
			<path class="st22" d="M722.6,485c0.7-1.2,1.4-2.9,1.6-4.7c0.4-2.8-0.4-4.5-1.9-4.8c-1.4-0.2-2.5,0.8-3.6,3.5
				c-1.4,3.3-2.9,5.4-5.1,5.2c-2.4-0.3-3.8-3.4-3.1-7.8c0.4-2.3,1-3.9,1.6-4.8c0.6,0.4,0.9,0.6,1.5,1.1c-0.4,0.7-1.1,2.1-1.4,4.1
				c-0.5,3,0.6,4.4,1.7,4.5c1.4,0.2,2.3-1.1,3.6-3.9c1.6-3.5,3.1-5.1,5.4-4.7c2.3,0.4,3.9,3.1,3.2,8c-0.3,2-1,4.1-1.7,5.2
				C723.5,485.5,723.2,485.3,722.6,485z"/>
			<path class="st22" d="M722.9,457.5c-0.8,3.2-1.2,4.8-1.9,8.1c2.2,0.5,3.2,0.7,5.4,1.2c0.8-3.5,1.2-5.3,2.1-8.8
				c0.6,0.2,1,0.3,1.6,0.4c-1.2,4.5-1.7,6.7-2.6,11.3c-6-1.2-9-1.8-15-3.1c1-4.7,1.5-7.1,2.7-11.7c0.6,0.2,1,0.3,1.6,0.4
				c-0.9,3.5-1.3,5.3-2.1,8.8c1.9,0.4,2.8,0.6,4.7,1c0.7-3.3,1.1-4.9,1.9-8.2C722,457.3,722.3,457.4,722.9,457.5z"/>
			<path class="st22" d="M735,441.4c0,1-0.3,3-1.1,5.3c-1.8,5.4-5.6,8.9-10.4,7.6c-4.6-1.3-6.6-6.7-4.4-13.2
				c0.9-2.6,1.9-4.1,2.4-4.7c0.5,0.5,0.8,0.7,1.3,1.2c-0.7,0.9-1.5,2.2-2,3.9c-1.6,4.8-0.4,8.8,3.5,9.9c3.6,1.1,6.7-1.1,8.3-5.8
				c0.5-1.5,0.8-3.2,0.8-4.3C734,441.4,734.3,441.4,735,441.4z"/>
			<path class="st22" d="M723.3,430.4c3.4,1.3,5.1,2,8.4,3.4c3.2,1.3,5.3-0.1,6.4-2.6c1.2-2.8,0.6-5.1-2.4-6.6
				c-3.3-1.5-5-2.3-8.3-3.8c0.5-1,0.7-1.5,1.2-2.6c3.2,1.5,4.8,2.3,8.1,3.8c4.3,2,4.6,5.8,2.9,9.8c-1.6,3.8-4.4,6.1-8.8,4.4
				c-3.4-1.3-5.1-1.9-8.4-3.2C722.7,432,722.9,431.4,723.3,430.4z"/>
			<path class="st22" d="M730.9,414c0.5-1.4,1.3-3.2,2.2-4.9c1.4-2.6,2.7-4.1,4.1-4.8c1.1-0.6,2.3-0.6,3.4,0c1.7,1,2,3.2,1.4,5.4
				c0,0,0,0,0.1,0c1.1-1.2,2.6-1.5,4.2-1.1c2.2,0.5,3.7,0.8,4.4,0.8c-0.5,0.9-0.8,1.4-1.3,2.3c-0.5,0.1-1.9-0.2-3.9-0.6
				c-2.1-0.5-3.4,0.1-4.6,2.2c-0.5,0.9-0.7,1.3-1.2,2.2c2.4,1.2,3.5,1.8,5.9,3.1c-0.5,0.9-0.7,1.4-1.2,2.3
				C739,418.1,736.3,416.7,730.9,414z M738.3,414.7c0.5-1,0.8-1.5,1.3-2.4c1.4-2.5,1.3-4.7-0.3-5.5c-1.7-1-3.5,0.3-4.9,2.9
				c-0.6,1.2-1,2.1-1.1,2.5C735.4,413.2,736.4,413.7,738.3,414.7z"/>
			<path class="st22" d="M751.8,394.1c-1.8,2.6-2.7,4-4.4,6.7c1.9,1.2,2.8,1.8,4.7,2.9c1.9-2.9,2.8-4.4,4.8-7.3
				c0.5,0.4,0.8,0.6,1.4,0.9c-2.5,3.7-3.8,5.6-6.1,9.4c-5.2-3.2-7.9-4.8-13.1-8c2.4-4,3.7-5.9,6.3-9.7c0.5,0.4,0.8,0.6,1.4,0.9
				c-2,2.9-2.9,4.3-4.8,7.3c1.6,1,2.5,1.5,4.1,2.6c1.7-2.7,2.6-4.1,4.4-6.8C751,393.6,751.3,393.8,751.8,394.1z"/>
			<path class="st22" d="M747.9,385.9c0.8-1.5,1.9-3.2,3.2-4.9c2.4-3.2,4.7-4.9,6.8-5.6c2.2-0.6,4.2-0.3,6.1,1.3
				c1.9,1.6,2.8,3.7,2.7,6.1c-0.1,2.3-1.4,5.2-3.7,8.3c-1.1,1.5-2.1,2.7-2.9,3.6C755.2,391.2,752.8,389.4,747.9,385.9z M760.4,391.7
				c0.5-0.5,1-1.2,1.7-2c3.3-4.4,3.4-8.2,0.3-10.8c-2.8-2.3-6.4-1.6-9.9,3c-0.9,1.1-1.4,2-1.8,2.7
				C754.5,387.4,756.5,388.9,760.4,391.7z"/>
			<path class="st22" d="M765.3,364.3c0.8-0.8,1.1-1.2,1.9-2c3.9,3.8,5.9,5.7,9.9,9.5c2.4-2.5,3.6-3.7,6-6c0.5,0.5,0.7,0.7,1.1,1.2
				c-3.2,3-4.7,4.6-7.7,7.8C772,370.6,769.8,368.5,765.3,364.3z"/>
			<path class="st22" d="M777.9,351.9c4.1,4.6,6.2,6.8,10.3,11.4c-0.8,0.7-1.1,1-1.9,1.7c-4.2-4.5-6.3-6.7-10.4-11.2
				C776.7,353,777.1,352.7,777.9,351.9z"/>
			<path class="st22" d="M794.9,357.6c-5.9-3.1-8.9-4.6-15-7.3c0.9-0.8,1.3-1.2,2.2-1.9c3,1.4,4.4,2.2,7.4,3.7c2,1,3.8,2,5.3,3.1
				c0,0,0,0,0,0c-0.7-1.7-1.2-3.8-1.8-5.9c-0.8-3.2-1.2-4.9-1.9-8.2c0.9-0.7,1.4-1.1,2.3-1.8c1.2,6.7,1.9,10.1,3.6,16.6
				C796.2,356.5,795.7,356.8,794.9,357.6z"/>
			<path class="st22" d="M808.9,338.4c-2.7,1.7-4,2.6-6.6,4.5c1.3,1.8,1.9,2.7,3.2,4.5c2.8-2,4.3-3,7.2-4.8c0.4,0.6,0.5,0.8,0.9,1.4
				c-3.7,2.4-5.6,3.7-9.2,6.3c-3.6-5-5.4-7.4-9-12.4c3.7-2.7,5.6-4,9.5-6.5c0.4,0.6,0.5,0.8,0.9,1.4c-2.9,1.9-4.4,2.9-7.2,4.9
				c1.1,1.6,1.7,2.4,2.8,4c2.6-1.9,3.9-2.8,6.6-4.5C808.3,337.5,808.5,337.8,808.9,338.4z"/>
			<path class="st22" d="M808.2,329.1c0.9-0.6,1.4-0.9,2.3-1.4c2.8,4.7,4.2,7,7.1,11.7c2.9-1.8,4.4-2.6,7.4-4.3
				c0.3,0.6,0.5,0.9,0.8,1.5c-3.9,2.1-5.8,3.2-9.5,5.6C813.1,336.9,811.5,334.3,808.2,329.1z"/>
			<path class="st22" d="M823.7,320.4c2.8,5.5,4.2,8.2,7,13.7c-0.9,0.5-1.4,0.7-2.3,1.2c-2.9-5.4-4.3-8.1-7.1-13.6
				C822.2,321.1,822.7,320.9,823.7,320.4z"/>
			<path class="st22" d="M830.5,317c1.1,2.3,1.6,3.5,2.7,5.8c3.6-1.7,5.5-2.5,9.2-4c-1-2.4-1.5-3.6-2.4-5.9c1-0.4,1.6-0.6,2.6-1
				c2.2,5.7,3.4,8.6,5.6,14.3c-1,0.4-1.5,0.6-2.4,1c-1.1-2.7-1.6-4-2.7-6.7c-3.7,1.5-5.5,2.3-9.2,4c1.2,2.6,1.8,3.9,3,6.5
				c-0.9,0.4-1.4,0.7-2.3,1.1c-2.7-5.5-4-8.3-6.7-13.8C829,317.7,829.5,317.5,830.5,317z"/>
			<path class="st22" d="M866.8,311.8c1.4,5.1-2,8.9-6.9,10.4c-5,1.6-9.6,0-11.2-4.3c-1.7-4.6,1.2-9.1,6.7-10.8
				C861,305.2,865.6,307.4,866.8,311.8z M851.4,316.9c1.1,3.1,4.3,5,8.2,3.8c3.9-1.3,5.4-4.7,4.5-8c-0.8-2.9-3.9-5.4-8.3-4
				C851.4,310,850.2,313.7,851.4,316.9z"/>
			<path class="st22" d="M887.9,307.3c0.8,5.2-3,8.6-8,9.7c-5.2,1.1-9.6-1-10.8-5.5c-1.2-4.7,2.1-8.9,7.9-10.1
				C882.8,300.2,887.2,302.8,887.9,307.3z M871.8,310.7c0.8,3.2,3.7,5.5,7.8,4.6c4.1-0.9,6-4.1,5.4-7.5c-0.5-3-3.3-5.8-7.9-4.8
				C872.6,303.9,871,307.5,871.8,310.7z"/>
			<path class="st22" d="M890.4,299.5c1.7-0.4,3.7-0.8,6-1.1c4.1-0.5,7.1,0,9.1,1.1c2,1.1,3.3,2.8,3.4,5.3c0.1,2.5-0.9,4.6-2.7,6.1
				c-1.9,1.6-5,2.6-8.9,3c-1.9,0.2-3.5,0.4-4.8,0.4C891.7,308.5,891.2,305.5,890.4,299.5z M894.9,312.6c0.7,0,1.7-0.1,2.7-0.2
				c5.7-0.6,8.7-3.2,8.4-7.3c-0.2-3.6-3.3-5.8-9.3-5.1c-1.5,0.2-2.6,0.4-3.3,0.6C894,305.4,894.3,307.8,894.9,312.6z"/>
			<path class="st22" d="M912.4,310.3c1.2,0.5,3,0.9,4.9,0.9c2.8,0,4.4-1.1,4.5-2.6c0-1.4-1.2-2.3-4.1-3c-3.5-0.9-5.8-2-5.9-4.2
				c-0.1-2.4,2.7-4.3,7.1-4.3c2.3,0,4,0.4,5,0.8c-0.3,0.6-0.5,1-0.8,1.6c-0.7-0.3-2.2-0.8-4.3-0.8c-3.1,0-4.2,1.3-4.2,2.4
				c0,1.4,1.4,2.1,4.4,2.9c3.7,1,5.6,2.3,5.5,4.6c-0.1,2.4-2.5,4.3-7.5,4.4c-2,0-4.2-0.3-5.4-0.8C912,311.3,912.1,311,912.4,310.3z"
				/>
		</g>
	</g>
	<g class="st21">
		<g>
			<g>
				<path class="st8" d="M993.6,306.6c1.3-5,2-7.5,3.4-12.4c0.9,0.3,1.4,0.4,2.3,0.6c1.4,3.1,2.1,4.7,3.4,7.8
					c0.7,1.8,1.3,3.4,1.6,4.9c0,0,0,0,0.1,0c0.3-1.7,0.8-3.2,1.4-5.1c0.7-2.1,1-3.1,1.6-5.1c0.8,0.3,1.2,0.4,2,0.6
					c-1.6,4.9-2.4,7.4-4,12.3c-0.8-0.3-1.2-0.4-2-0.6c-1.2-3.1-1.8-4.7-3.1-7.8c-0.7-1.7-1.4-3.4-1.9-5c0,0,0,0-0.1,0
					c-0.3,1.6-0.7,3.1-1.3,5.2c-0.6,2.1-0.9,3.2-1.5,5.3C994.8,306.9,994.4,306.8,993.6,306.6z"/>
				<path class="st8" d="M1012.7,308.2c-1.2,1.3-1.8,2-2.9,3.3c-0.8-0.3-1.2-0.4-2-0.7c3.7-4.2,5.7-6.2,9.6-10.3
					c1,0.4,1.5,0.5,2.5,0.9c0.4,5.6,0.5,8.5,0.6,14.1c-0.8-0.3-1.2-0.5-2.1-0.8c-0.1-1.8-0.1-2.6-0.2-4.4
					C1016,309.4,1014.9,309,1012.7,308.2z M1018.2,308.9c-0.1-1.6-0.1-2.4-0.2-4c-0.1-0.9,0-1.7,0-2.5c0,0,0,0,0,0
					c-0.5,0.6-1,1.3-1.6,1.9c-1.1,1.2-1.7,1.8-2.8,3C1015.4,307.8,1016.3,308.2,1018.2,308.9z"/>
				<path class="st8" d="M1028.1,306.2c-1.9-0.8-2.8-1.2-4.8-1.9c0.2-0.5,0.3-0.8,0.5-1.3c4.7,1.8,7,2.8,11.6,4.9
					c-0.2,0.5-0.4,0.8-0.6,1.3c-1.9-0.8-2.8-1.3-4.7-2.1c-1.8,4.2-2.7,6.3-4.5,10.6c-0.8-0.3-1.2-0.5-1.9-0.8
					C1025.4,312.6,1026.3,310.5,1028.1,306.2z"/>
				<path class="st8" d="M1039.1,309.6c-1.3,2.8-2,4.1-3.3,6.9c-1.2,2.6-0.3,4.4,1.6,5.3c2.1,1.1,4.1,0.6,5.4-1.9
					c1.4-2.7,2.1-4.1,3.5-6.8c0.8,0.4,1.2,0.6,2,1c-1.4,2.7-2.1,4-3.5,6.7c-1.8,3.5-4.9,3.7-8,2.2c-2.9-1.4-4.6-3.8-2.9-7.5
					c1.3-2.8,1.9-4.1,3.2-6.9C1037.9,309,1038.3,309.2,1039.1,309.6z"/>
				<path class="st8" d="M1051.5,316.1c1,0.4,2.5,1,3.8,1.8c2,1.1,3.1,2.2,3.7,3.3c0.4,0.9,0.4,1.9-0.1,2.8
					c-0.9,1.5-2.6,1.7-4.3,1.3c0,0,0,0,0,0c0.9,0.9,1.1,2.1,0.7,3.5c-0.5,1.8-0.8,3.1-0.8,3.7c-0.7-0.4-1.1-0.7-1.8-1.1
					c0-0.4,0.2-1.6,0.6-3.2c0.5-1.8,0.1-2.8-1.6-3.8c-0.7-0.4-1-0.6-1.7-1c-1.1,2-1.6,2.9-2.7,4.9c-0.7-0.4-1.1-0.6-1.8-1
					C1047.9,322.8,1049.1,320.5,1051.5,316.1z M1050.6,322.2c0.8,0.4,1.1,0.6,1.9,1.1c2,1.1,3.7,1,4.4-0.3c0.8-1.4-0.1-2.9-2.1-4
					c-0.9-0.5-1.6-0.8-1.9-0.9C1051.9,319.8,1051.5,320.6,1050.6,322.2z"/>
				<path class="st8" d="M1066.7,333c-2.1-1.4-3.2-2.1-5.3-3.4c-1,1.6-1.5,2.4-2.5,3.9c2.3,1.5,3.5,2.2,5.8,3.7
					c-0.3,0.5-0.5,0.7-0.8,1.2c-3-2-4.5-2.9-7.5-4.8c2.7-4.4,4-6.6,6.7-11c3.1,1.9,4.6,2.9,7.6,4.9c-0.3,0.5-0.5,0.7-0.8,1.2
					c-2.3-1.5-3.4-2.3-5.7-3.7c-0.9,1.4-1.3,2.1-2.2,3.5c2.2,1.3,3.2,2,5.3,3.4C1067.1,332.3,1067,332.5,1066.7,333z"/>
				<path class="st8" d="M1078.2,348.6c-0.1-0.6-0.2-1.1-0.4-1.9c-1.7,0-3.2-0.6-4.6-1.6c-2.5-1.8-3-4.2-1.9-5.8
					c1-1.4,2.8-1.7,4.8-1.2c0,0,0,0,0,0c-0.2-1.2-0.1-2.2,0.5-3c0.9-1.3,3-1.7,5.3-0.1c1.7,1.2,2.3,3.1,1.3,4.4
					c-0.8,1.1-2.3,1.3-4.9,0.6c0,0,0,0,0,0c0.3,1.8,0.7,3.9,1,5.2c1.1-0.3,2.3-0.9,3.5-2c0.6,0.5,0.9,0.7,1.5,1.2
					c-1.6,1.3-3.1,2.2-4.8,2.3c0.2,1.1,0.4,2.2,0.7,3.4C1079.3,349.5,1078.9,349.2,1078.2,348.6z M1077.5,345.4
					c-0.2-1.2-0.7-3.6-1.2-6c-1-0.2-2.4-0.2-3.2,0.9c-0.9,1.2-0.4,2.9,1.1,4C1075.3,345.1,1076.5,345.4,1077.5,345.4z M1078.3,336.1
					c-0.5,0.7-0.5,1.6-0.4,2.6c1.8,0.4,3,0.5,3.7-0.4c0.5-0.6,0.6-1.7-0.5-2.5C1080,335,1078.9,335.3,1078.3,336.1z"/>
				<path class="st8" d="M1094.7,362c-0.9-0.4-2.5-1.3-4.1-2.7c-1.8-1.6-2.9-3.2-3.3-5.2c-0.4-1.7,0.1-3.6,1.4-5.1
					c2.5-2.9,6.9-2.9,11.1,0.8c1.4,1.3,2.3,2.5,2.7,3.2c-0.5,0.3-0.8,0.4-1.3,0.6c-0.4-0.8-1.1-1.8-2.3-2.9c-3-2.7-6.3-2.9-8.4-0.4
					c-2.1,2.5-1.5,5.5,1.2,8c1,0.9,1.8,1.4,2.3,1.6c1-1.1,1.6-1.7,2.6-2.8c-1-0.9-1.5-1.3-2.4-2.2c0.4-0.4,0.5-0.6,0.9-1
					c1.6,1.4,2.4,2.1,3.9,3.6C1097.3,359.3,1096.4,360.2,1094.7,362z"/>
				<path class="st8" d="M1105.4,355.3c0.9,0.6,2.1,1.6,3.1,2.7c1.6,1.6,2.4,2.9,2.6,4.1c0.2,1-0.1,1.9-0.9,2.6
					c-1.2,1.2-3,1-4.5,0.1c0,0,0,0,0,0c0.6,1.1,0.5,2.3-0.2,3.5c-0.9,1.6-1.6,2.8-1.7,3.3c-0.6-0.6-0.9-0.9-1.5-1.5
					c0.1-0.4,0.6-1.5,1.5-2.9c0.9-1.6,0.8-2.7-0.5-4c-0.6-0.6-0.8-0.8-1.4-1.4c-1.6,1.6-2.3,2.4-3.9,4c-0.6-0.6-0.9-0.8-1.5-1.4
					C1100.1,360.9,1101.9,359,1105.4,355.3z M1102.9,361c0.6,0.6,0.9,0.9,1.5,1.5c1.6,1.6,3.3,1.9,4.3,0.9c1.2-1.2,0.6-2.8-1-4.4
					c-0.7-0.7-1.3-1.2-1.6-1.4C1104.8,359,1104.2,359.7,1102.9,361z"/>
				<path class="st8" d="M1115.5,375.5c-1.7-1.9-2.5-2.8-4.2-4.7c-1.4,1.3-2,1.9-3.4,3.2c1.9,2,2.8,3,4.6,5.1
					c-0.4,0.4-0.6,0.6-1.1,0.9c-2.3-2.7-3.5-4-6-6.6c3.8-3.5,5.6-5.3,9.4-8.8c2.5,2.6,3.7,3.9,6,6.6c-0.4,0.4-0.6,0.6-1,0.9
					c-1.8-2-2.7-3-4.5-5c-1.2,1.1-1.8,1.7-3,2.8c1.7,1.9,2.6,2.8,4.2,4.7C1116.1,375,1115.9,375.1,1115.5,375.5z"/>
				<path class="st8" d="M1123.1,384.5c-1.6-2-2.4-2.9-4-4.9c-1.4,1.2-2.1,1.8-3.6,3c1.8,2.1,2.6,3.2,4.3,5.3
					c-0.4,0.3-0.7,0.5-1.1,0.9c-2.2-2.8-3.3-4.1-5.6-6.8c3.9-3.4,5.9-5,9.8-8.4c2.3,2.7,3.5,4.1,5.7,6.9c-0.4,0.3-0.7,0.5-1.1,0.9
					c-1.7-2.1-2.6-3.2-4.3-5.3c-1.2,1-1.9,1.6-3.1,2.6c1.6,1.9,2.4,2.9,4,4.9C1123.7,384,1123.5,384.2,1123.1,384.5z"/>
				<path class="st8" d="M1120.4,390.9c4.1-3.2,6.1-4.7,10.2-7.9c0.6,0.7,0.9,1.1,1.4,1.9c-0.8,3.3-1.2,4.9-2.1,8.1
					c-0.5,1.9-1.1,3.4-1.7,4.8c0,0,0,0,0,0c1.3-1.1,2.5-2.1,4.2-3.3c1.8-1.3,2.6-1.9,4.4-3.1c0.5,0.7,0.7,1,1.2,1.7
					c-4.2,3-6.3,4.4-10.6,7.4c-0.5-0.7-0.7-1-1.2-1.7c1-3.2,1.4-4.7,2.3-8c0.5-1.8,1-3.5,1.6-5c0,0,0,0-0.1,0
					c-1.2,1.1-2.4,2.1-4.1,3.4c-1.8,1.3-2.6,2-4.4,3.3C1121.1,391.9,1120.9,391.6,1120.4,390.9z"/>
				<path class="st8" d="M1143,400.6c2,3,2.9,4.5,4.7,7.6c-0.5,0.3-0.7,0.4-1.2,0.7c-1.4-2.3-2.1-3.5-3.6-5.8
					c-1.4,0.9-2.2,1.4-3.6,2.3c1.3,2.1,2,3.1,3.2,5.3c-0.5,0.3-0.7,0.4-1.2,0.7c-1.3-2.1-1.9-3.1-3.2-5.2c-2,1.3-3,1.9-4.9,3.1
					c-0.4-0.7-0.7-1-1.1-1.7C1136.6,404.8,1138.7,403.4,1143,400.6z"/>
				<path class="st8" d="M1150.4,412.7c-2.7,1.5-4,2.3-6.6,3.8c-2.5,1.4-2.8,3.4-1.8,5.3c1.1,2.1,3,2.8,5.5,1.5
					c2.7-1.4,4-2.1,6.7-3.6c0.4,0.8,0.6,1.2,1,1.9c-2.7,1.4-4,2.1-6.7,3.5c-3.5,1.8-6.1,0.3-7.8-2.7c-1.6-2.8-1.5-5.7,2-7.7
					c2.6-1.5,3.9-2.3,6.6-3.8C1149.8,411.6,1150,411.9,1150.4,412.7z"/>
				<path class="st8" d="M1157.1,428.5c-0.9-1.8-1.3-2.7-2.3-4.5c0.5-0.3,0.8-0.4,1.3-0.6c2.2,4.4,3.3,6.7,5.4,11.2
					c-0.5,0.2-0.8,0.3-1.3,0.6c-0.8-1.9-1.3-2.8-2.1-4.6c-4.2,2-6.2,2.9-10.4,4.9c-0.4-0.8-0.5-1.1-0.9-1.9
					C1150.9,431.5,1153,430.5,1157.1,428.5z"/>
				<path class="st8" d="M1163.1,438.2c-2.8,1.2-4.2,1.8-7,3c-2.7,1.1-3.1,3.1-2.3,5.1c0.9,2.2,2.6,3.2,5.3,2.1
					c2.8-1.1,4.3-1.7,7.1-2.8c0.3,0.8,0.5,1.2,0.8,2.1c-2.8,1.1-4.2,1.6-7,2.7c-3.7,1.4-6.1-0.4-7.4-3.6c-1.2-3-0.9-5.9,2.8-7.5
					c2.8-1.2,4.2-1.8,7-3.1C1162.6,437,1162.8,437.4,1163.1,438.2z"/>
				<path class="st8" d="M1168.1,451.3c0.5,1,1.2,2.4,1.7,3.9c0.8,2.2,0.9,3.8,0.6,5c-0.3,1-1,1.7-1.9,2c-1.6,0.5-3.1-0.5-4.1-2
					c0,0,0,0-0.1,0c0.1,1.3-0.6,2.3-1.7,3.1c-1.5,1-2.6,1.8-3,2.3c-0.3-0.8-0.4-1.2-0.7-2.1c0.3-0.4,1.2-1.1,2.6-2
					c1.5-1,1.9-2.1,1.3-3.9c-0.3-0.8-0.4-1.1-0.7-1.9c-2.1,0.7-3.2,1.1-5.3,1.9c-0.3-0.8-0.4-1.2-0.7-2
					C1160.9,453.9,1163.3,453,1168.1,451.3z M1163.3,455.3c0.3,0.8,0.4,1.2,0.7,2.1c0.7,2.2,2.1,3.2,3.5,2.8
					c1.6-0.5,1.8-2.3,1.1-4.4c-0.3-1-0.7-1.7-0.9-2C1166,454.4,1165.1,454.7,1163.3,455.3z"/>
				<path class="st8" d="M1168.4,474.4c-0.7-2.5-1-3.7-1.7-6.2c-1.8,0.5-2.7,0.8-4.5,1.3c0.8,2.7,1.2,4.1,1.9,6.8
					c-0.5,0.1-0.8,0.2-1.4,0.4c-0.9-3.5-1.4-5.3-2.5-8.8c4.9-1.5,7.4-2.3,12.3-3.8c1.1,3.5,1.6,5.3,2.5,8.9
					c-0.5,0.1-0.8,0.2-1.4,0.4c-0.7-2.7-1.1-4.1-1.9-6.7c-1.6,0.5-2.3,0.7-3.9,1.2c0.7,2.5,1.1,3.7,1.8,6.3
					C1169.2,474.2,1168.9,474.2,1168.4,474.4z"/>
				<path class="st8" d="M1165.3,478.5c-0.2,1-0.3,2.5,0.1,3.9c0.5,2.1,1.6,3.2,2.9,2.9c1.2-0.3,1.7-1.3,1.8-3.6
					c0.1-2.8,0.7-4.7,2.5-5.2c1.9-0.5,3.9,1.3,4.7,4.5c0.4,1.7,0.4,3,0.2,3.9c-0.6-0.1-0.9-0.2-1.5-0.3c0.1-0.6,0.2-1.8-0.1-3.3
					c-0.5-2.3-1.8-2.9-2.6-2.7c-1.2,0.3-1.5,1.4-1.6,3.8c-0.2,3-0.9,4.6-2.8,5c-1.9,0.4-4-1.1-4.9-4.8c-0.4-1.5-0.4-3.3-0.2-4.2
					C1164.4,478.4,1164.7,478.4,1165.3,478.5z"/>
			</g>
		</g>
	</g>
	<g class="st21">
		<g>
			<g>
				<path class="st8" d="M972,760.3c1,0.3,2.4,0.6,3.8,0.5c2.1-0.2,3.3-1,3.2-2.2c-0.1-1-1-1.6-3.2-2c-2.6-0.5-4.3-1.3-4.4-2.9
					c-0.1-1.7,1.8-3.1,4.8-3.3c1.6-0.1,2.7,0,3.4,0.2c-0.2,0.5-0.3,0.7-0.4,1.2c-0.5-0.1-1.6-0.4-3-0.3c-2.1,0.2-2.9,1.1-2.8,1.9
					c0.1,1,1.1,1.5,3.3,1.9c2.7,0.5,4.2,1.3,4.3,2.9c0.2,1.7-1.5,3.4-5.4,3.7c-1.6,0.1-3.3-0.1-4.2-0.5
					C971.7,761,971.8,760.8,972,760.3z"/>
				<path class="st8" d="M985,749.7c0.3,2.6,0.5,3.9,0.8,6.5c0.3,2.5,2,3.3,4.2,3c2.4-0.3,3.7-1.7,3.3-4.1c-0.4-2.6-0.6-3.9-1.1-6.5
					c0.8-0.1,1.2-0.2,2-0.3c0.4,2.6,0.7,3.8,1.1,6.4c0.6,3.4-1.7,5.2-5.2,5.7c-3.3,0.5-5.9-0.6-6.3-4c-0.3-2.6-0.4-3.9-0.7-6.5
					C983.8,749.9,984.2,749.8,985,749.7z"/>
				<path class="st8" d="M999,757c1,0.2,2.4,0.3,3.7,0c2.1-0.4,3.1-1.5,2.8-2.5c-0.2-1-1.2-1.4-3.3-1.5c-2.6-0.1-4.3-0.8-4.6-2.3
					c-0.3-1.7,1.4-3.3,4.2-3.9c1.5-0.3,2.7-0.3,3.4-0.2c-0.1,0.5-0.2,0.8-0.3,1.3c-0.5-0.1-1.6-0.2-2.9,0.1c-2,0.4-2.6,1.5-2.5,2.2
					c0.2,1,1.2,1.4,3.4,1.5c2.7,0.2,4.2,0.7,4.6,2.3c0.4,1.7-1,3.6-4.7,4.3c-1.5,0.3-3.2,0.3-4.1,0.1
					C998.8,757.8,998.9,757.5,999,757z"/>
				<path class="st8" d="M1011.4,745.9c-1.8,0.5-2.7,0.7-4.5,1.1c-0.1-0.5-0.2-0.7-0.3-1.2c4.3-1,6.5-1.6,10.7-2.9
					c0.1,0.5,0.2,0.7,0.4,1.2c-1.8,0.5-2.6,0.8-4.4,1.3c1,3.8,1.6,5.7,2.6,9.5c-0.8,0.2-1.2,0.3-2,0.5
					C1012.9,751.6,1012.4,749.7,1011.4,745.9z"/>
				<path class="st8" d="M1022,749.5c-0.2,1.5-0.3,2.3-0.5,3.8c-0.8,0.2-1.2,0.4-2,0.6c0.8-4.9,1.1-7.3,1.7-12.2
					c0.9-0.3,1.3-0.4,2.2-0.7c3.3,3.6,5.1,5.3,8.6,8.8c-0.8,0.3-1.2,0.4-2,0.7c-1.1-1.1-1.6-1.6-2.7-2.8
					C1025.1,748.5,1024.1,748.9,1022,749.5z M1026.4,746.9c-1-1-1.5-1.5-2.4-2.6c-0.5-0.6-1-1.1-1.4-1.7c0,0,0,0,0,0
					c0,0.7,0,1.4-0.1,2.1c-0.2,1.4-0.3,2.1-0.4,3.5C1023.8,747.8,1024.7,747.5,1026.4,746.9z"/>
				<path class="st8" d="M1032,737.9c1.6,4.1,2.4,6.2,4,10.4c-0.8,0.3-1.1,0.4-1.9,0.7c-1.6-4.2-2.4-6.2-3.9-10.4
					C1030.9,738.4,1031.2,738.2,1032,737.9z"/>
				<path class="st8" d="M1039.3,747c-1.7-4.1-2.5-6.2-4.2-10.3c0.8-0.3,1.2-0.5,1.9-0.8c2.6,1.3,3.9,2,6.6,3.3
					c1.6,0.7,2.9,1.4,4,2.2c0,0,0,0,0,0c-0.8-1.3-1.4-2.5-2.1-4.1c-0.8-1.7-1.2-2.5-2-4.2c0.6-0.3,1-0.5,1.6-0.8
					c1.9,4,2.9,6,4.8,10.1c-0.7,0.3-1.1,0.5-1.8,0.9c-2.7-1.2-4.1-1.9-6.8-3.2c-1.5-0.7-2.9-1.5-4-2.3c0,0,0,0-0.1,0
					c0.6,1.3,1.2,2.5,1.9,4.2c0.7,1.8,1.1,2.6,1.8,4.4C1040.3,746.6,1040,746.7,1039.3,747z"/>
				<path class="st8" d="M1053.8,736.5c0.1,1.5,0.1,2.3,0.2,3.8c-0.7,0.4-1.1,0.6-1.9,0.9c-0.1-4.9-0.1-7.4-0.4-12.2
					c0.8-0.4,1.2-0.6,2-1.1c3.9,3,5.8,4.4,9.9,7.3c-0.7,0.4-1.1,0.6-1.9,1c-1.3-0.9-1.9-1.4-3.1-2.3
					C1056.6,735,1055.7,735.5,1053.8,736.5z M1057.6,733.2c-1.1-0.8-1.7-1.3-2.8-2.1c-0.6-0.5-1.1-1-1.6-1.4c0,0,0,0,0,0
					c0.1,0.7,0.2,1.4,0.3,2.1c0.1,1.4,0.1,2.1,0.2,3.5C1055.2,734.5,1056,734.1,1057.6,733.2z"/>
				<path class="st8" d="M1060,724.6c0.6-0.5,1.7-1.3,2.8-2c1.6-1,2.8-1.4,3.8-1.4c0.9,0,1.6,0.3,2.1,1c0.6,0.9,0.3,2.2-0.8,3.4
					c0,0,0,0,0,0c1.3-0.5,3.2-0.7,4.1,0.7c0.5,0.8,0.5,1.7,0.1,2.6c-0.5,1.2-1.8,2.4-4,3.7c-1.2,0.7-2.1,1.2-2.7,1.5
					C1063.3,730.3,1062.2,728.4,1060,724.6z M1063.9,727.6c0.6-0.4,0.9-0.5,1.5-0.9c1.7-1.1,2.3-2.4,1.8-3.3
					c-0.7-1.1-2.1-0.8-3.7,0.2c-0.7,0.5-1.2,0.8-1.4,0.9C1062.8,725.7,1063.2,726.4,1063.9,727.6z M1066.6,732.2
					c0.4-0.2,0.9-0.4,1.5-0.8c1.8-1.1,3.1-2.5,2.2-3.9c-0.8-1.3-2.6-0.9-4.4,0.2c-0.5,0.3-0.8,0.5-1.4,0.8
					C1065.3,730,1065.8,730.7,1066.6,732.2z"/>
				<path class="st8" d="M1069.8,718.3c0.6-0.4,0.9-0.6,1.6-1c2.2,3.3,3.3,4.9,5.6,8.2c2.2-1.5,3.2-2.2,5.3-3.8
					c0.3,0.4,0.4,0.6,0.7,1c-2.8,2-4.2,3-7,4.9C1073.5,723.8,1072.3,722,1069.8,718.3z"/>
				<path class="st8" d="M1087.8,712.4c-1.8,1.5-2.7,2.2-4.6,3.6c1,1.3,1.5,1.9,2.4,3.2c2.1-1.6,3.2-2.4,5.2-4.1
					c0.3,0.4,0.5,0.6,0.8,0.9c-2.7,2.2-4,3.2-6.8,5.3c-2.7-3.6-4-5.4-6.6-8.9c2.5-1.9,3.8-2.8,6.2-4.8c0.3,0.4,0.5,0.6,0.8,0.9
					c-1.9,1.5-2.8,2.3-4.7,3.7c0.8,1.1,1.3,1.7,2.1,2.8c1.8-1.4,2.8-2.1,4.6-3.6C1087.4,711.9,1087.5,712,1087.8,712.4z"/>
				<path class="st8" d="M1102.9,698.3c2.7,2.7,1.8,6.4-1,9.1c-3,2.7-6.6,2.9-8.8,0.3c-2.3-2.7-1.6-6.3,1.2-8.9
					C1097.2,696.2,1100.6,696,1102.9,698.3z M1094.6,706.4c1.6,1.8,4.3,2.2,6.6,0.1c2.3-2.1,2.1-4.9,0.3-6.7
					c-1.5-1.6-4.2-2.2-6.5-0.1C1092.7,701.9,1093,704.5,1094.6,706.4z"/>
				<path class="st8" d="M1100.9,692.8c0.6-0.7,1.3-1.6,2.4-2.7c1.3-1.3,2.4-2.1,3.5-2.3c0.9-0.2,1.8,0,2.6,0.6
					c0.7,0.7,1.1,1.5,1,2.4c-0.1,1.3-0.9,2.8-2.2,4.2c-0.4,0.4-0.8,0.8-1.2,1.1c1.3,1.2,1.9,1.9,3.2,3.1c-0.6,0.6-0.8,0.9-1.4,1.4
					C1105.6,697.5,1104,695.9,1100.9,692.8z M1106.1,695.2c0.4-0.2,0.7-0.6,1.2-1.1c1.6-1.7,1.9-3.3,0.8-4.3c-1.1-1-2.5-0.5-4,1
					c-0.6,0.6-1,1.1-1.1,1.4C1104.2,693.4,1104.8,694,1106.1,695.2z"/>
				<path class="st8" d="M1118.1,682.4c-1.5,1.8-2.2,2.7-3.7,4.5c1.2,1,1.8,1.6,3,2.6c1.7-2,2.6-3,4.2-5.1c0.4,0.3,0.6,0.5,0.9,0.8
					c-2.2,2.7-3.3,4-5.6,6.6c-3.3-2.9-5-4.4-8.4-7.3c2.1-2.4,3.1-3.5,5.1-6c0.4,0.3,0.6,0.5,0.9,0.8c-1.5,1.9-2.3,2.8-3.9,4.6
					c1.1,0.9,1.6,1.4,2.7,2.3c1.5-1.7,2.3-2.6,3.7-4.4C1117.5,681.9,1117.7,682.1,1118.1,682.4z"/>
				<path class="st8" d="M1124.2,683.1c-3.5-2.8-5.2-4.1-8.7-6.9c0.5-0.6,0.8-1,1.3-1.6c2.9-0.1,4.4-0.2,7.3-0.4
					c1.7-0.1,3.2-0.1,4.5-0.1c0,0,0,0,0,0c-1.3-0.7-2.4-1.5-3.8-2.5c-1.5-1.1-2.3-1.6-3.8-2.7c0.4-0.6,0.6-0.9,1-1.4
					c3.6,2.6,5.5,3.8,9.1,6.4c-0.5,0.7-0.7,1-1.2,1.6c-3,0.3-4.5,0.4-7.4,0.5c-1.6,0.1-3.2,0.1-4.6-0.1c0,0,0,0,0,0.1
					c1.2,0.8,2.3,1.6,3.7,2.7c1.5,1.2,2.3,1.7,3.8,2.9C1124.9,682.3,1124.6,682.5,1124.2,683.1z"/>
				<path class="st8" d="M1135.4,657.6c-1.2,2-1.8,3-3,5c1.4,0.9,2,1.3,3.4,2.1c1.4-2.2,2.1-3.4,3.5-5.7c0.4,0.2,0.6,0.4,1,0.6
					c-1.8,3-2.7,4.5-4.5,7.4c-3.7-2.4-5.6-3.6-9.3-6c1.7-2.6,2.5-4,4.1-6.7c0.4,0.2,0.6,0.4,1,0.6c-1.2,2.1-1.9,3.1-3.1,5.1
					c1.2,0.8,1.8,1.1,3,1.9c1.2-2,1.8-2.9,3-4.9C1134.8,657.2,1135,657.3,1135.4,657.6z"/>
				<path class="st8" d="M1146.3,647.7c-0.1,0.8-0.5,2.2-1.4,3.9c-2,3.9-5.4,5.7-8.6,3.9c-3-1.7-3.5-5.6-1.4-9.6
					c0.8-1.6,1.6-2.5,2-2.9c0.3,0.4,0.5,0.6,0.8,0.9c-0.6,0.5-1.2,1.3-1.8,2.4c-1.6,3-1.3,5.8,1.3,7.3c2.4,1.3,5,0.3,6.7-3
					c0.6-1.1,1-2.2,1.1-3.1C1145.6,647.7,1145.8,647.7,1146.3,647.7z"/>
				<path class="st8" d="M1147.8,631.8c3.5,1.5,4.2,5.3,2.5,8.9c-1.7,3.7-5,5.3-8.1,3.8c-3.2-1.6-3.9-5.2-2.3-8.7
					C1141.6,632.1,1144.7,630.6,1147.8,631.8z M1143.1,642.6c2.1,1,4.8,0.4,6.1-2.5c1.3-2.9,0.1-5.4-2.2-6.3c-2-0.9-4.7-0.4-6.1,2.5
					C1139.7,639.2,1140.9,641.5,1143.1,642.6z"/>
				<path class="st8" d="M1154,631.6c-4.1-1.7-6.2-2.5-10.3-4.1c0.3-0.8,0.5-1.2,0.8-1.9c2.8-0.9,4.2-1.5,7-2.5
					c1.6-0.6,3-1.1,4.3-1.4c0,0,0,0,0,0c-1.5-0.3-2.8-0.7-4.4-1.3c-1.8-0.6-2.6-0.9-4.4-1.5c0.2-0.7,0.4-1,0.6-1.7
					c4.2,1.4,6.3,2.1,10.5,3.5c-0.3,0.8-0.4,1.2-0.7,1.9c-2.8,1.1-4.2,1.7-7,2.7c-1.5,0.6-3.1,1-4.5,1.3c0,0,0,0,0,0.1
					c1.3,0.4,2.6,0.9,4.3,1.5c1.8,0.7,2.7,1,4.4,1.7C1154.4,630.6,1154.3,630.9,1154,631.6z"/>
				<path class="st8" d="M1157.3,603c3.7,0.9,4.9,4.6,3.8,8.5c-1.1,4-4.2,6.1-7.4,5c-3.4-1.1-4.6-4.6-3.6-8.4
					C1151.2,604.2,1154.1,602.2,1157.3,603z M1154.3,614.4c2.3,0.7,4.9-0.4,5.7-3.4c0.9-3.1-0.7-5.4-3.2-6c-2.1-0.6-4.8,0.4-5.6,3.5
					C1150.3,611.6,1151.9,613.7,1154.3,614.4z"/>
				<path class="st8" d="M1161.2,587.8c-1.5-0.1-3.4-0.3-4.8-0.6c0,0,0,0,0,0.1c1.2,0.7,2.5,1.6,3.8,2.6c1.9,1.5,2.9,2.2,4.8,3.7
					c-0.1,0.6-0.2,0.9-0.3,1.5c-2.3,0.6-3.4,0.9-5.7,1.4c-1.7,0.4-3.2,0.7-4.6,0.8c0,0,0,0,0,0c1.3,0.3,3.1,0.9,4.7,1.4
					c1.8,0.6,2.7,0.9,4.6,1.5c-0.2,0.8-0.3,1.1-0.4,1.9c-4.2-1.5-6.3-2.2-10.6-3.6c0.2-1,0.3-1.4,0.5-2.4c2.3-0.5,3.5-0.8,5.8-1.4
					c1.5-0.4,2.8-0.6,4-0.8c0,0,0,0,0-0.1c-1-0.6-2.1-1.4-3.4-2.3c-1.9-1.5-2.9-2.2-4.8-3.6c0.2-1,0.3-1.5,0.4-2.5
					c4.5,0.3,6.7,0.5,11.1,0.8c-0.1,0.8-0.2,1.2-0.3,2C1164.2,588,1163.2,588,1161.2,587.8z"/>
				<path class="st8" d="M1156.1,579.6c4.4,0.6,6.6,0.9,11,1.4c-0.1,0.8-0.2,1.2-0.3,2.1c-4.4-0.6-6.6-0.9-11-1.5
					C1156,580.7,1156,580.4,1156.1,579.6z"/>
				<path class="st8" d="M1163.1,568.7c-0.2,2.5-0.3,3.7-0.5,6.1c1.6,0.2,2.4,0.2,4,0.4c0.3-2.8,0.4-4.2,0.6-7c0.5,0,0.7,0,1.2,0.1
					c-0.2,3.6-0.4,5.5-0.8,9.1c-4.4-0.5-6.6-0.7-11.1-1.2c0.4-3.3,0.5-4.9,0.7-8.2c0.5,0,0.7,0.1,1.2,0.1c-0.2,2.5-0.3,3.8-0.5,6.3
					c1.4,0.1,2.1,0.2,3.5,0.4c0.2-2.4,0.3-3.6,0.5-6.1C1162.4,568.6,1162.7,568.7,1163.1,568.7z"/>
				<path class="st8" d="M1166.8,565.8c0.4-0.9,0.8-2.3,0.9-3.7c0.1-2.1-0.7-3.4-1.8-3.4c-1,0-1.7,0.8-2.3,3c-0.8,2.5-1.8,4.1-3.3,4
					c-1.7-0.1-2.9-2.2-2.8-5.2c0-1.6,0.3-2.7,0.6-3.4c0.5,0.2,0.7,0.3,1.2,0.6c-0.2,0.5-0.6,1.5-0.6,3c-0.1,2.1,0.8,3,1.6,3
					c1,0,1.6-0.9,2.3-3c0.8-2.7,1.7-4,3.4-4c1.7,0,3.2,1.9,3.1,5.8c-0.1,1.6-0.5,3.3-0.9,4.1C1167.5,566.2,1167.3,566,1166.8,565.8z
					"/>
			</g>
		</g>
	</g>
	<g class="st21">
		<g>
			<g>
				<path class="st8" d="M738.1,603c0.3,1,0.4,1.5,0.7,2.5c-4,1.2-6,1.8-10,2.9c-4,1.2-6-1.2-6.9-4.8c-0.3-1-0.4-2.3-0.4-3
					c0.7,0,1,0,1.7,0c0,0.6,0.1,1.4,0.3,2.3c0.6,2.4,1.8,3.6,4.7,2.8C732.2,604.7,734.1,604.1,738.1,603z"/>
				<path class="st8" d="M740.8,612.1c-3.5,1.2-5.2,1.7-8.7,2.9c-3.3,1.1-4,3.6-3.1,6.3c1.1,3,3.2,4.3,6.4,3.1
					c3.4-1.3,5.2-2,8.6-3.3c0.4,1,0.6,1.5,0.9,2.4c-3.4,1.3-5,2-8.4,3.4c-4.4,1.8-7.6-0.7-9.1-5.1c-1.5-4.1-0.7-7.9,3.9-9.3
					c3.5-1.1,5.2-1.7,8.7-2.8C740.3,610.6,740.5,611.1,740.8,612.1z"/>
				<path class="st8" d="M734.5,632.3c0,1.3,0.3,3.2,1,4.9c1.2,2.6,2.8,3.6,4.3,2.9c1.3-0.6,1.6-2,1.1-4.9c-0.5-3.4-0.2-5.9,1.9-6.7
					c2.2-0.9,4.9,0.7,6.5,4.2c0.8,1.8,1.2,3.3,1.2,4.3c-0.7,0-1.1,0-1.8,0.1c0-0.7-0.2-2.1-1-3.7c-1.1-2.5-2.7-2.9-3.7-2.5
					c-1.3,0.6-1.5,2-1.1,4.9c0.5,3.6,0.2,5.7-1.8,6.7c-2.2,1.1-5.1-0.2-7.2-4.8c-0.8-1.9-1.3-4.1-1.3-5.4
					C733.4,632.3,733.8,632.3,734.5,632.3z"/>
				<path class="st8" d="M753.1,644.7c-1.1-2.1-1.7-3.2-2.8-5.4c0.6-0.3,0.9-0.5,1.5-0.8c2.6,5.2,4,7.8,7,12.8
					c-0.6,0.3-0.9,0.5-1.5,0.9c-1.2-2.1-1.8-3.1-3-5.3c-4.8,2.7-7.3,4-12.1,6.7c-0.5-1-0.8-1.5-1.3-2.4
					C745.8,648.7,748.2,647.4,753.1,644.7z"/>
				<path class="st8" d="M752.1,665.4c0.2,1.3,0.8,3.1,1.9,4.6c1.6,2.3,3.4,3,4.7,2.1c1.2-0.8,1.2-2.3,0.3-5
					c-1.1-3.2-1.2-5.7,0.7-6.9c2-1.3,4.9-0.2,7.1,3c1.1,1.6,1.7,3,1.9,4c-0.7,0.2-1,0.2-1.7,0.4c-0.2-0.7-0.6-2-1.6-3.5
					c-1.5-2.2-3.2-2.4-4-1.8c-1.2,0.8-1.1,2.2-0.2,5c1.1,3.4,1.2,5.6-0.7,6.9c-1.9,1.4-5.1,0.7-7.9-3.4c-1.2-1.7-2-3.8-2.2-5
					C751,665.6,751.4,665.5,752.1,665.4z"/>
				<path class="st8" d="M776.6,688.2c-4,3.6-9.1,2.2-12.5-1.9c-3.6-4.3-3.4-9.4,0.4-12.2c3.9-3,8.8-1.8,12.2,2.2
					C780.1,680.4,780,685.1,776.6,688.2z M766.3,676.3c-2.6,2-3.5,5.8-0.8,9.1c2.7,3.3,6.6,3.2,9.2,0.8c2.3-2,3.4-5.7,0.7-9
					C772.7,674,769,674.2,766.3,676.3z"/>
				<path class="st8" d="M783.9,706.2c-1-0.4-2.7-1.5-4.5-3.3c-4.3-4.2-5.3-9.4-1.5-12.8c3.6-3.3,8.8-2.5,13.1,1.8
					c1.7,1.7,2.6,3.1,2.9,3.7c-0.6,0.3-0.9,0.5-1.6,0.8c-0.5-0.9-1.3-2.1-2.4-3.2c-3.3-3.2-7.1-3.9-10.1-1.1
					c-2.8,2.6-2.5,6.5,1.1,10c1.2,1.2,2.6,2.1,3.6,2.6C784.4,705.3,784.2,705.6,783.9,706.2z"/>
				<path class="st8" d="M798.4,699c-4.1,4.7-6.2,7-10.3,11.7c-0.8-0.7-1.2-1.1-2-1.8c4.2-4.6,6.2-6.9,10.4-11.5
					C797.3,698,797.7,698.4,798.4,699z"/>
				<path class="st8" d="M804.8,714.9c-2.5-1.9-3.8-2.9-6.3-4.9c-1.4,1.7-2.1,2.6-3.5,4.3c2.8,2.3,4.3,3.4,7.2,5.6
					c-0.4,0.5-0.6,0.8-1,1.3c-3.8-2.9-5.7-4.4-9.3-7.4c4-4.8,6-7.1,10-11.9c3.3,2.7,4.9,4.1,8.3,6.6c-0.4,0.5-0.6,0.8-1,1.3
					c-2.6-2-3.9-3-6.4-5c-1.2,1.5-1.9,2.3-3.1,3.8c2.4,2,3.7,3,6.2,4.9C805.4,714.1,805.2,714.3,804.8,714.9z"/>
				<path class="st8" d="M815.6,714.6c-2-1.4-3-2.1-4.9-3.5c0.4-0.5,0.6-0.8,1-1.4c4.7,3.5,7.1,5.1,12.1,8.2
					c-0.4,0.6-0.5,0.9-0.9,1.4c-2.1-1.3-3.1-2-5.1-3.3c-3.1,4.6-4.6,6.9-7.7,11.5c-0.9-0.6-1.4-0.9-2.3-1.6
					C810.9,721.4,812.4,719.2,815.6,714.6z"/>
				<path class="st8" d="M827.8,720.4c-3.2,5.3-4.8,8-8,13.3c-0.9-0.6-1.4-0.9-2.4-1.4c3.3-5.3,4.9-7.9,8.1-13.2
					C826.5,719.7,826.9,719.9,827.8,720.4z"/>
				<path class="st8" d="M837.1,734.9c-2.9-1.4-4.3-2.2-7.1-3.8c-1.1,2-1.6,2.9-2.7,4.9c3.2,1.8,4.9,2.6,8.2,4.3
					c-0.3,0.6-0.4,0.9-0.7,1.5c-4.3-2.1-6.5-3.3-10.7-5.7c3.1-5.4,4.6-8.1,7.7-13.5c3.7,2.1,5.6,3.1,9.5,5.1
					c-0.3,0.6-0.5,0.9-0.8,1.5c-3-1.5-4.4-2.2-7.3-3.8c-0.9,1.7-1.4,2.6-2.4,4.3c2.8,1.5,4.2,2.3,7.1,3.7
					C837.5,734,837.4,734.3,837.1,734.9z"/>
				<path class="st8" d="M838.6,741.1c0.9,1,2.3,2.2,4.1,3c2.6,1.2,4.5,0.8,5.2-0.6c0.6-1.3-0.2-2.6-2.4-4.4
					c-2.7-2.2-4.1-4.3-3.1-6.3c1-2.2,4.1-2.7,7.7-1.1c1.9,0.8,3.1,1.7,3.8,2.4c-0.5,0.5-0.8,0.7-1.3,1.2c-0.5-0.5-1.6-1.5-3.3-2.2
					c-2.5-1.1-4-0.4-4.4,0.6c-0.6,1.3,0.2,2.5,2.5,4.4c2.8,2.3,4,4.2,3.2,6.3c-0.9,2.2-4,3.2-8.7,1.2c-1.9-0.9-3.8-2.2-4.6-3.2
					C837.8,741.8,838.1,741.6,838.6,741.1z"/>
			</g>
		</g>
	</g>
</g>
</svg>
